<?xml version="1.0" encoding="UTF-8"?>
<svg width="54px" height="32px" viewBox="0 0 54 32" version="1.1" xmlns="http://www.w3.org/2000/svg" xmlns:xlink="http://www.w3.org/1999/xlink">
    <!-- Generator: sketchtool 54.1 (76490) - https://sketchapp.com -->
    <title>714C0B52-DBEA-402B-B1D3-6BC1C2277C6D</title>
    <desc>Created with sketchtool.</desc>
    <g id="Page-1" stroke="none" stroke-width="1" fill="none" fill-rule="evenodd">
        <g id="Exercise" transform="translate(-179.000000, -476.000000)">
            <g id="artwork" transform="translate(16.000000, 24.000000)">
                <g id="Stacked-Group" transform="translate(19.000000, 405.000000)">
                    <g id="Wheater/Day" transform="translate(143.000000, 12.000000)">
                        <g id="Cloud" transform="translate(1.000000, 35.000000)">
                            <rect id="Rectangle" x="0" y="0.0788732394" width="53.0181818" height="41.0666667"></rect>
                            <path d="M9.79451299,31.8774748 C4.56711774,31.5338728 0.705681818,27.6615846 0.705681818,23.259749 C0.705681818,17.927654 4.94444049,13.8970585 10.5519156,13.8970585 C10.8912772,13.8970585 11.2276459,13.9167918 11.559779,13.9553233 C12.9146831,6.44418865 19.6161093,0.933333333 27.9721753,0.933333333 C34.8744142,0.933333333 40.9266519,5.38362292 43.0601598,11.7365961 C43.0801692,11.7364905 43.1001917,11.7364377 43.1202273,11.7364377 C48.9764539,11.7364377 53.7238636,16.2507046 53.7238636,21.8193351 C53.7238636,27.1458079 49.3803685,31.5076235 43.8776299,31.876907 L43.8776299,31.9022324 L9.79451299,31.9022324 L9.79451299,31.8774748 Z" id="Oval-1" fill="#FFFFFF"></path>
                        </g>
                    </g>
                </g>
            </g>
        </g>
    </g>
</svg>